<?xml version="1.0" encoding="UTF-8"?>
<svg xmlns="http://www.w3.org/2000/svg" xmlns:xlink="http://www.w3.org/1999/xlink" viewBox="0 0 30 30" width="30px" height="30px">
<g id="surface190661635">
<path style=" stroke:none;fill-rule:nonzero;fill:rgb(87.843138%,87.843138%,87.843138%);fill-opacity:1;" d="M 3.4375 25.3125 L 26.5625 25.3125 C 27.769531 25.3125 28.75 24.332031 28.75 23.125 L 28.75 6.875 C 28.75 5.667969 27.769531 4.6875 26.5625 4.6875 L 3.4375 4.6875 C 2.230469 4.6875 1.25 5.667969 1.25 6.875 L 1.25 23.125 C 1.25 24.332031 2.230469 25.3125 3.4375 25.3125 Z M 3.4375 25.3125 "/>
<path style=" stroke:none;fill-rule:nonzero;fill:rgb(85.09804%,85.09804%,85.09804%);fill-opacity:1;" d="M 16.25 25.3125 L 26.5625 25.3125 C 27.769531 25.3125 28.75 24.332031 28.75 23.125 L 28.75 6.875 C 28.75 5.667969 27.769531 4.6875 26.5625 4.6875 L 3.4375 4.6875 C 2.230469 4.6875 1.25 5.667969 1.25 6.875 Z M 16.25 25.3125 "/>
<path style=" stroke:none;fill-rule:nonzero;fill:rgb(93.333334%,93.333334%,93.333334%);fill-opacity:1;" d="M 4.214844 25.3125 L 26.5625 25.3125 C 27.769531 25.3125 28.75 24.332031 28.75 23.125 L 28.75 7.1875 Z M 4.214844 25.3125 "/>
<path style=" stroke:none;fill-rule:nonzero;fill:rgb(87.843138%,87.843138%,87.843138%);fill-opacity:1;" d="M 16.089844 25.3125 L 26.5625 25.3125 C 27.769531 25.3125 28.75 24.332031 28.75 23.125 L 28.75 7.1875 L 11.730469 19.761719 Z M 16.089844 25.3125 "/>
<path style=" stroke:none;fill-rule:nonzero;fill:rgb(56.470591%,56.470591%,58.823532%);fill-opacity:1;" d="M 26.5625 5.9375 L 3.4375 5.9375 C 2.230469 5.9375 1.25 5.667969 1.25 6.875 L 1.25 23.125 C 1.25 24.332031 2.230469 25.3125 3.4375 25.3125 L 4.375 25.3125 L 4.375 7.5 L 25.625 7.5 L 25.625 25.3125 L 26.5625 25.3125 C 27.769531 25.3125 28.75 24.332031 28.75 23.125 L 28.75 6.875 C 28.75 5.667969 27.769531 5.9375 26.5625 5.9375 Z M 26.5625 5.9375 "/>
<path style=" stroke:none;fill-rule:nonzero;fill:rgb(96.078432%,96.078432%,96.078432%);fill-opacity:1;" d="M 26.5625 4.6875 L 3.4375 4.6875 C 2.230469 4.6875 1.25 5.648438 1.25 6.875 C 1.25 7.628906 2.199219 8.285156 2.199219 8.285156 L 15 17.347656 L 27.800781 8.285156 C 27.800781 8.285156 28.75 7.628906 28.75 6.875 C 28.75 5.648438 27.769531 4.6875 26.5625 4.6875 Z M 26.5625 4.6875 "/>
<path style=" stroke:none;fill-rule:nonzero;fill:rgb(56.470591%,56.470591%,58.823532%);fill-opacity:1;" d="M 27.027344 4.738281 L 15 13.125 L 2.972656 4.738281 C 1.988281 4.949219 1.25 5.8125 1.25 6.875 C 1.25 7.628906 2.199219 8.285156 2.199219 8.285156 L 15 17.347656 L 27.800781 8.285156 C 27.800781 8.285156 28.75 7.628906 28.75 6.875 C 28.75 5.8125 28.011719 4.949219 27.027344 4.738281 Z M 27.027344 4.738281 "/>
</g>
</svg>
